<svg id="svg" xmlns="http://www.w3.org/2000/svg" xmlns:xlink="http://www.w3.org/1999/xlink" width="400" height="400" viewBox="0, 0, 400,400"><g id="svgg"><path id="path0" d="M85.046 2.958 C 68.567 10.442,65.075 21.438,65.888 63.281 C 66.526 96.114,67.089 98.327,77.346 108.288 L 82.813 113.597 82.847 243.908 C 82.887 395.075,81.978 387.888,102.256 397.510 C 110.199 401.279,289.801 401.279,297.744 397.510 C 318.022 387.888,317.113 395.075,317.153 243.908 L 317.188 113.597 322.654 108.288 C 332.911 98.327,333.474 96.114,334.112 63.281 C 334.925 21.438,331.433 10.442,314.954 2.958 C 305.116 -1.511,94.884 -1.511,85.046 2.958 M140.625 58.594 L 140.625 82.813 120.313 82.813 L 100.000 82.813 100.000 58.594 L 100.000 34.375 120.313 34.375 L 140.625 34.375 140.625 58.594 M225.000 58.594 L 225.000 82.813 200.000 82.813 L 175.000 82.813 175.000 58.594 L 175.000 34.375 200.000 34.375 L 225.000 34.375 225.000 58.594 M300.000 58.594 L 300.000 82.813 279.688 82.813 L 259.375 82.813 259.375 58.594 L 259.375 34.375 279.688 34.375 L 300.000 34.375 300.000 58.594 M282.813 250.000 L 282.813 332.813 200.000 332.813 L 117.188 332.813 117.188 250.000 L 117.188 167.188 200.000 167.188 L 282.813 167.188 282.813 250.000 M136.285 218.057 C 134.060 219.616,132.813 222.110,132.813 225.000 C 132.813 234.280,133.496 234.375,200.000 234.375 C 266.504 234.375,267.188 234.280,267.188 225.000 C 267.188 215.720,266.504 215.625,200.000 215.625 C 148.005 215.625,139.282 215.958,136.285 218.057 M136.285 268.057 C 134.060 269.616,132.813 272.110,132.813 275.000 C 132.813 284.280,133.496 284.375,200.000 284.375 C 266.504 284.375,267.188 284.280,267.188 275.000 C 267.188 265.720,266.504 265.625,200.000 265.625 C 148.005 265.625,139.282 265.958,136.285 268.057 " stroke="none" fill="#000000" fill-rule="evenodd"></path></g></svg>