<svg id="svg" xmlns="http://www.w3.org/2000/svg" xmlns:xlink="http://www.w3.org/1999/xlink" width="400" height="400" viewBox="0, 0, 400,400"><g id="svgg"><path id="path0" d="M137.574 1.743 C 126.567 5.080,115.168 15.138,63.065 67.494 C 2.080 128.775,1.435 129.640,0.355 151.563 C -0.935 177.739,-8.262 168.686,110.639 287.827 C 228.927 406.353,220.263 399.230,246.094 399.202 C 270.469 399.176,269.216 400.099,334.862 333.830 C 400.273 267.798,399.229 269.248,399.202 244.531 C 399.175 219.329,404.934 226.342,289.297 110.690 C 175.038 -3.583,180.900 1.298,157.031 0.549 C 149.297 0.306,140.541 0.843,137.574 1.743 M183.137 61.748 C 202.085 74.287,203.819 101.809,186.616 116.951 C 168.841 132.597,143.523 127.607,132.329 106.250 C 115.905 74.918,153.405 42.072,183.137 61.748 M106.462 132.479 C 127.275 143.292,132.471 168.571,117.481 186.084 C 96.147 211.007,56.027 196.260,56.027 163.495 C 56.027 137.118,83.211 120.400,106.462 132.479 M250.000 131.381 C 272.896 141.761,278.872 168.777,262.258 186.800 C 241.303 209.534,204.044 197.317,201.851 166.992 C 199.885 139.813,225.998 120.500,250.000 131.381 M182.581 206.693 C 218.297 230.328,187.870 286.387,149.219 268.160 C 121.523 255.100,121.523 217.379,149.219 204.394 C 158.607 199.992,174.065 201.057,182.581 206.693 M322.316 203.669 C 345.612 213.432,351.374 243.512,333.393 261.494 C 302.389 292.498,253.996 247.239,282.519 213.916 C 292.137 202.679,309.367 198.243,322.316 203.669 M254.473 279.248 C 273.738 291.158,277.180 317.706,261.494 333.393 C 239.088 355.798,201.470 340.649,201.597 309.272 C 201.709 281.590,231.187 264.851,254.473 279.248 " stroke="none" fill="#000000" fill-rule="evenodd"></path></g></svg>