<svg id="svg" xmlns="http://www.w3.org/2000/svg" xmlns:xlink="http://www.w3.org/1999/xlink" width="400" height="400" viewBox="0, 0, 400,400"><g id="svgg"><path id="path0" d="M313.196 2.242 C 298.606 7.009,292.426 11.914,257.813 46.199 L 222.656 81.021 217.553 76.448 C 209.114 68.884,207.456 69.724,183.912 93.485 C 172.136 105.370,162.500 115.952,162.500 117.000 C 162.500 120.335,166.750 127.193,171.782 131.978 L 176.656 136.612 110.273 203.071 C 38.997 274.431,35.988 278.083,35.953 293.282 C 35.912 310.670,31.704 320.747,12.591 349.219 C -3.594 373.330,-3.610 373.836,11.365 388.711 C 26.493 403.738,26.064 403.778,55.367 384.567 C 81.353 367.530,84.453 366.192,102.788 364.101 C 122.633 361.838,122.854 361.661,195.904 289.639 L 263.100 223.389 268.659 228.697 C 274.506 234.280,279.743 237.500,282.975 237.500 C 284.037 237.500,294.630 227.864,306.515 216.088 C 330.276 192.544,331.116 190.886,323.552 182.447 L 318.979 177.344 354.009 141.996 C 397.568 98.044,399.219 95.312,399.219 67.188 C 399.219 21.020,355.878 -11.702,313.196 2.242 M206.770 224.604 L 177.344 253.115 146.104 253.120 L 114.864 253.125 159.367 208.602 L 203.869 164.079 220.033 180.086 L 236.197 196.094 206.770 224.604 " stroke="none" fill="#000000" fill-rule="evenodd"></path></g></svg>