<svg id="svg" xmlns="http://www.w3.org/2000/svg" xmlns:xlink="http://www.w3.org/1999/xlink" width="400" height="400" viewBox="0, 0, 400,400"><g id="svgg"><path id="path0" d="M310.992 3.022 C 307.976 8.659,309.213 13.874,315.117 20.409 L 320.859 26.765 292.115 55.541 L 263.371 84.317 243.660 64.815 C 223.217 44.587,220.103 42.806,212.397 46.930 C 205.648 50.542,208.316 58.662,220.271 70.888 L 231.167 82.031 142.689 170.556 L 54.211 259.081 54.496 268.591 C 54.852 280.457,59.368 295.359,65.569 305.132 C 68.178 309.244,70.312 313.092,70.312 313.682 C 70.312 314.273,54.492 330.631,35.156 350.034 C -1.873 387.192,-4.812 391.438,1.875 398.125 C 8.562 404.812,12.808 401.873,49.966 364.844 C 69.369 345.508,85.727 329.688,86.318 329.688 C 86.908 329.688,90.756 331.822,94.868 334.431 C 104.517 340.554,119.473 345.135,131.340 345.604 L 140.734 345.975 229.378 257.340 L 318.023 168.706 327.371 178.222 C 341.890 193.001,348.552 195.110,354.077 186.677 C 357.956 180.757,355.675 177.173,334.151 155.367 L 314.002 134.952 343.817 106.308 L 373.632 77.665 380.234 84.145 C 390.164 93.890,400.000 92.217,400.000 80.783 C 400.000 72.633,326.614 0.000,318.379 0.000 C 314.274 0.000,312.143 0.872,310.992 3.022 M211.121 145.129 C 217.602 151.610,218.687 156.090,214.732 160.045 C 206.870 167.907,188.687 150.371,196.151 142.125 C 200.283 137.558,204.371 138.379,211.121 145.129 M177.631 184.766 C 190.461 197.081,191.580 199.090,188.356 204.011 C 184.284 210.227,179.951 208.772,168.399 197.308 C 156.983 185.979,155.399 181.555,161.285 177.432 C 166.267 173.943,166.436 174.019,177.631 184.766 M136.539 215.763 C 144.337 221.897,146.060 227.520,141.528 232.052 C 136.482 237.097,135.541 236.983,128.306 230.446 C 115.798 219.146,123.463 205.477,136.539 215.763 M106.601 258.942 C 118.293 270.544,119.702 274.843,113.210 279.096 C 103.840 285.236,79.538 259.497,86.961 251.295 C 91.433 246.353,95.517 247.943,106.601 258.942 " stroke="none" fill="#000000" fill-rule="evenodd"></path></g></svg>