<svg id="svg" xmlns="http://www.w3.org/2000/svg" xmlns:xlink="http://www.w3.org/1999/xlink" width="400" height="400" viewBox="0, 0, 400,400"><g id="svgg"><path id="path0" d="M258.594 2.293 C 246.701 4.887,231.505 11.050,221.257 17.436 C 210.873 23.906,28.409 205.521,20.002 217.754 C -17.725 272.651,-1.023 350.958,55.469 384.040 C 95.041 407.213,145.121 405.467,182.813 379.600 C 198.678 368.712,376.752 188.382,384.082 175.781 C 435.418 87.528,358.072 -19.404,258.594 2.293 M207.420 307.585 C 157.162 358.087,147.064 364.396,116.406 364.446 C 54.264 364.548,15.101 296.678,46.116 242.634 C 48.584 238.333,67.405 218.055,90.414 194.906 L 130.421 154.655 187.865 212.083 L 245.309 269.512 207.420 307.585 " stroke="none" fill="#000000" fill-rule="evenodd"></path></g></svg>