<svg id="svg" xmlns="http://www.w3.org/2000/svg" xmlns:xlink="http://www.w3.org/1999/xlink" width="400" height="400" viewBox="0, 0, 400,400"><g id="svgg"><path id="path0" d="M96.875 89.730 C 63.410 97.168,30.432 119.260,16.839 143.346 C 14.288 147.865,11.587 151.942,10.837 152.406 C 6.088 155.341,0.997 179.303,0.890 199.219 C 0.737 227.817,3.914 237.544,22.323 264.844 C 31.964 279.142,61.157 299.419,81.544 305.979 C 101.031 312.250,105.572 312.500,199.975 312.500 C 297.252 312.500,301.190 312.255,321.875 304.921 C 381.020 283.951,413.353 222.362,394.765 166.078 C 392.435 159.022,389.914 152.870,389.163 152.406 C 388.413 151.942,385.637 147.733,382.995 143.052 C 369.262 118.718,336.450 96.962,302.632 89.766 C 288.421 86.742,110.458 86.711,96.875 89.730 " stroke="none" fill="#000000" fill-rule="evenodd"></path></g></svg>