<svg id="svg" xmlns="http://www.w3.org/2000/svg" xmlns:xlink="http://www.w3.org/1999/xlink" width="400" height="400" viewBox="0, 0, 400,400"><g id="svgg"><path id="path0" d="M162.500 88.415 C 160.352 88.776,153.320 89.822,146.875 90.739 C 94.830 98.141,43.327 121.715,21.313 148.210 C 17.996 152.202,14.748 155.820,14.096 156.250 C 8.586 159.880,0.000 186.530,0.000 200.000 C -0.000 213.470,8.586 240.120,14.096 243.750 C 14.748 244.180,17.996 247.798,21.313 251.790 C 43.184 278.113,89.557 299.479,146.875 309.641 C 162.915 312.485,237.085 312.485,253.125 309.641 C 310.306 299.503,356.868 278.050,378.687 251.790 C 382.004 247.798,385.252 244.180,385.904 243.750 C 391.414 240.120,400.000 213.470,400.000 200.000 C 400.000 186.530,391.414 159.880,385.904 156.250 C 385.252 155.820,382.004 152.202,378.687 148.210 C 357.348 122.527,313.430 101.818,257.798 91.205 C 245.138 88.790,172.846 86.673,162.500 88.415 " stroke="none" fill="#000000" fill-rule="evenodd"></path></g></svg>