<svg id="svg" xmlns="http://www.w3.org/2000/svg" xmlns:xlink="http://www.w3.org/1999/xlink" width="400" height="400" viewBox="0, 0, 400,400"><g id="svgg"><path id="path0" d="M119.785 2.420 C 109.868 6.057,104.128 11.271,54.511 61.719 C -6.929 124.187,-0.201 106.767,0.347 201.953 L 0.781 277.344 4.409 284.375 C 10.661 296.490,104.789 389.861,116.406 395.471 L 125.781 399.998 199.331 399.999 C 263.278 400.000,273.886 399.666,280.581 397.442 C 292.079 393.621,389.860 296.422,396.026 282.684 L 400.087 273.634 399.653 198.145 L 399.219 122.656 395.508 115.398 C 389.477 103.602,293.921 9.155,282.813 4.010 L 274.219 0.031 200.000 0.125 C 140.257 0.202,124.612 0.649,119.785 2.420 " stroke="none" fill="#000000" fill-rule="evenodd"></path></g></svg>