<svg id="svg" xmlns="http://www.w3.org/2000/svg" xmlns:xlink="http://www.w3.org/1999/xlink" width="400" height="400" viewBox="0, 0, 400,400"><g id="svgg"><path id="path0" d="M186.444 8.401 C 167.688 14.547,162.756 20.734,140.026 66.634 C 121.135 104.780,120.464 105.872,115.381 106.762 C 112.508 107.265,94.688 109.848,75.781 112.502 C 23.758 119.804,14.952 123.702,4.859 143.900 C -8.586 170.807,-2.446 185.140,40.278 226.587 L 71.660 257.031 64.759 296.094 C 57.029 339.852,56.266 353.472,60.967 363.831 C 69.513 382.664,85.612 392.928,106.608 392.928 L 118.834 392.928 147.308 378.151 C 162.968 370.023,181.230 360.540,187.889 357.077 L 199.996 350.781 213.670 357.864 C 291.518 398.185,291.634 398.221,313.677 388.328 C 342.664 375.320,346.466 359.200,335.404 296.191 L 328.563 257.225 360.014 226.438 C 396.586 190.637,398.862 187.260,399.748 167.477 C 400.500 150.659,394.900 137.827,382.547 128.062 C 372.497 120.118,365.851 118.345,324.219 112.502 C 305.313 109.848,287.471 107.261,284.571 106.753 C 279.422 105.851,278.856 104.927,260.470 67.400 C 239.737 25.082,233.921 16.941,220.210 11.043 C 210.274 6.768,195.060 5.578,186.444 8.401 " stroke="none" fill="#000000" fill-rule="evenodd"></path></g></svg>